<?xml version="1.0" encoding="UTF-8" standalone="no"?>
<!-- Created with Inkscape (http://www.inkscape.org/) -->

<svg
   xmlns:dc="http://purl.org/dc/elements/1.1/"
   xmlns:cc="http://creativecommons.org/ns#"
   xmlns:rdf="http://www.w3.org/1999/02/22-rdf-syntax-ns#"
   xmlns:svg="http://www.w3.org/2000/svg"
   xmlns="http://www.w3.org/2000/svg"
   xmlns:xlink="http://www.w3.org/1999/xlink"
   xmlns:sodipodi="http://sodipodi.sourceforge.net/DTD/sodipodi-0.dtd"
   xmlns:inkscape="http://www.inkscape.org/namespaces/inkscape"
   width="96"
   height="96"
   id="svg6517"
   version="1.1"
   inkscape:version="0.91+devel r"
   sodipodi:docname="openvswitch01.svg"
   viewBox="0 0 96 96">
  <defs
     id="defs6519">
    <linearGradient
       id="Background">
      <stop
         id="stop4178"
         offset="0"
         style="stop-color:#22779e;stop-opacity:1" />
      <stop
         id="stop4180"
         offset="1"
         style="stop-color:#2991c0;stop-opacity:1" />
    </linearGradient>
    <filter
       style="color-interpolation-filters:sRGB"
       inkscape:label="Inner Shadow"
       id="filter1121">
      <feFlood
         flood-opacity="0.59999999999999998"
         flood-color="rgb(0,0,0)"
         result="flood"
         id="feFlood1123" />
      <feComposite
         in="flood"
         in2="SourceGraphic"
         operator="out"
         result="composite1"
         id="feComposite1125" />
      <feGaussianBlur
         in="composite1"
         stdDeviation="1"
         result="blur"
         id="feGaussianBlur1127" />
      <feOffset
         dx="0"
         dy="2"
         result="offset"
         id="feOffset1129" />
      <feComposite
         in="offset"
         in2="SourceGraphic"
         operator="atop"
         result="composite2"
         id="feComposite1131" />
    </filter>
    <filter
       style="color-interpolation-filters:sRGB"
       inkscape:label="Drop Shadow"
       id="filter950">
      <feFlood
         flood-opacity="0.25"
         flood-color="rgb(0,0,0)"
         result="flood"
         id="feFlood952" />
      <feComposite
         in="flood"
         in2="SourceGraphic"
         operator="in"
         result="composite1"
         id="feComposite954" />
      <feGaussianBlur
         in="composite1"
         stdDeviation="1"
         result="blur"
         id="feGaussianBlur956" />
      <feOffset
         dx="0"
         dy="1"
         result="offset"
         id="feOffset958" />
      <feComposite
         in="SourceGraphic"
         in2="offset"
         operator="over"
         result="composite2"
         id="feComposite960" />
    </filter>
    <clipPath
       clipPathUnits="userSpaceOnUse"
       id="clipPath873">
      <g
         transform="matrix(0,-0.66666667,0.66604479,0,-258.25992,677.00001)"
         id="g875"
         inkscape:label="Layer 1"
         style="display:inline;fill:#ff00ff;fill-opacity:1;stroke:none">
        <path
           style="display:inline;fill:#ff00ff;fill-opacity:1;stroke:none"
           d="M 46.702703,898.22775 H 97.297297 C 138.16216,898.22775 144,904.06497 144,944.92583 v 50.73846 c 0,40.86071 -5.83784,46.69791 -46.702703,46.69791 H 46.702703 C 5.8378378,1042.3622 0,1036.525 0,995.66429 v -50.73846 c 0,-40.86086 5.8378378,-46.69808 46.702703,-46.69808 z"
           id="path877"
           inkscape:connector-curvature="0"
           sodipodi:nodetypes="sssssssss" />
      </g>
    </clipPath>
    <filter
       inkscape:collect="always"
       id="filter891"
       inkscape:label="Badge Shadow">
      <feGaussianBlur
         inkscape:collect="always"
         stdDeviation="0.71999962"
         id="feGaussianBlur893" />
    </filter>
    <style
       id="style867"
       type="text/css"><![CDATA[
    .fil0 {fill:#1F1A17}
   ]]></style>
    <clipPath
       id="clipPath16">
      <path
         id="path18"
         d="M -9,-9 H 605 V 222 H -9 Z"
         inkscape:connector-curvature="0" />
    </clipPath>
    <clipPath
       id="clipPath116">
      <path
         id="path118"
         d="m 91.7368,146.3253 -9.7039,-1.577 -8.8548,-3.8814 -7.5206,-4.7308 -7.1566,-8.7335 -4.0431,-4.282 -3.9093,-1.4409 -1.034,2.5271 1.8079,2.6096 0.4062,3.6802 1.211,-0.0488 1.3232,-1.2069 -0.3569,3.7488 -1.4667,0.9839 0.0445,1.4286 -3.4744,-1.9655 -3.1462,-3.712 -0.6559,-3.3176 1.3453,-2.6567 1.2549,-4.5133 2.5521,-1.2084 2.6847,0.1318 2.5455,1.4791 -1.698,-8.6122 1.698,-9.5825 -1.8692,-4.4246 -6.1223,-6.5965 1.0885,-3.941 2.9002,-4.5669 5.4688,-3.8486 2.9007,-0.3969 3.225,-0.1094 -2.012,-8.2601 7.3993,-3.0326 9.2188,-1.2129 3.1535,2.0619 0.2427,5.5797 3.5178,5.8224 0.2426,4.6094 8.4909,-0.6066 7.8843,0.7279 -7.8843,-4.7307 1.3343,-5.701 4.9731,-7.763 4.8521,-2.0622 3.8814,1.5769 1.577,3.1538 8.1269,6.1861 1.5769,-1.3343 12.7363,-0.485 2.5473,2.0619 0.2426,3.6391 -0.849,1.5767 -0.6066,9.8251 -4.2454,8.4909 0.7276,3.7605 2.5475,-1.3343 7.1566,-6.6716 3.5175,-0.2424 3.8815,1.5769 3.8818,2.9109 1.9406,6.3077 11.4021,-0.7277 6.914,2.6686 5.5797,5.2157 4.0028,7.5206 0.9706,8.8546 -0.8493,10.3105 -2.1832,9.2185 -2.1836,2.9112 -3.0322,0.9706 -5.3373,-5.8224 -4.8518,-1.6982 -4.2455,7.0353 -4.2454,3.8815 -2.3049,1.4556 -9.2185,7.6419 -7.3993,4.0028 -7.3993,0.6066 -8.6119,-1.4556 -7.5206,-2.7899 -5.2158,-4.2454 -4.1241,-4.9734 -4.2454,-1.2129"
         inkscape:connector-curvature="0" />
    </clipPath>
    <clipPath
       id="clipPath128">
      <path
         id="path130"
         d="m 91.7368,146.3253 -9.7039,-1.577 -8.8548,-3.8814 -7.5206,-4.7308 -7.1566,-8.7335 -4.0431,-4.282 -3.9093,-1.4409 -1.034,2.5271 1.8079,2.6096 0.4062,3.6802 1.211,-0.0488 1.3232,-1.2069 -0.3569,3.7488 -1.4667,0.9839 0.0445,1.4286 -3.4744,-1.9655 -3.1462,-3.712 -0.6559,-3.3176 1.3453,-2.6567 1.2549,-4.5133 2.5521,-1.2084 2.6847,0.1318 2.5455,1.4791 -1.698,-8.6122 1.698,-9.5825 -1.8692,-4.4246 -6.1223,-6.5965 1.0885,-3.941 2.9002,-4.5669 5.4688,-3.8486 2.9007,-0.3969 3.225,-0.1094 -2.012,-8.2601 7.3993,-3.0326 9.2188,-1.2129 3.1535,2.0619 0.2427,5.5797 3.5178,5.8224 0.2426,4.6094 8.4909,-0.6066 7.8843,0.7279 -7.8843,-4.7307 1.3343,-5.701 4.9731,-7.763 4.8521,-2.0622 3.8814,1.5769 1.577,3.1538 8.1269,6.1861 1.5769,-1.3343 12.7363,-0.485 2.5473,2.0619 0.2426,3.6391 -0.849,1.5767 -0.6066,9.8251 -4.2454,8.4909 0.7276,3.7605 2.5475,-1.3343 7.1566,-6.6716 3.5175,-0.2424 3.8815,1.5769 3.8818,2.9109 1.9406,6.3077 11.4021,-0.7277 6.914,2.6686 5.5797,5.2157 4.0028,7.5206 0.9706,8.8546 -0.8493,10.3105 -2.1832,9.2185 -2.1836,2.9112 -3.0322,0.9706 -5.3373,-5.8224 -4.8518,-1.6982 -4.2455,7.0353 -4.2454,3.8815 -2.3049,1.4556 -9.2185,7.6419 -7.3993,4.0028 -7.3993,0.6066 -8.6119,-1.4556 -7.5206,-2.7899 -5.2158,-4.2454 -4.1241,-4.9734 -4.2454,-1.2129"
         inkscape:connector-curvature="0" />
    </clipPath>
    <linearGradient
       id="linearGradient3850"
       inkscape:collect="always">
      <stop
         id="stop3852"
         offset="0"
         style="stop-color:#000000;stop-opacity:1;" />
      <stop
         id="stop3854"
         offset="1"
         style="stop-color:#000000;stop-opacity:0;" />
    </linearGradient>
    <clipPath
       clipPathUnits="userSpaceOnUse"
       id="clipPath3095">
      <path
         d="M 976.648,389.551 H 134.246 V 1229.55 H 976.648 V 389.551"
         id="path3097"
         inkscape:connector-curvature="0" />
    </clipPath>
    <clipPath
       clipPathUnits="userSpaceOnUse"
       id="clipPath3195">
      <path
         d="m 611.836,756.738 -106.34,105.207 c -8.473,8.289 -13.617,20.102 -13.598,33.379 L 598.301,790.207 c -0.031,-13.418 5.094,-25.031 13.535,-33.469"
         id="path3197"
         inkscape:connector-curvature="0" />
    </clipPath>
    <clipPath
       clipPathUnits="userSpaceOnUse"
       id="clipPath3235">
      <path
         d="m 1095.64,1501.81 c 35.46,-35.07 70.89,-70.11 106.35,-105.17 4.4,-4.38 7.11,-10.53 7.11,-17.55 l -106.37,105.21 c 0,7 -2.71,13.11 -7.09,17.51"
         id="path3237"
         inkscape:connector-curvature="0" />
    </clipPath>
    <clipPath
       id="clipPath4591"
       clipPathUnits="userSpaceOnUse">
      <path
         inkscape:connector-curvature="0"
         d="m 1106.6009,730.43734 -0.036,21.648 c -0.01,3.50825 -2.8675,6.61375 -6.4037,6.92525 l -83.6503,7.33162 c -3.5205,0.30763 -6.3812,-2.29987 -6.3671,-5.8145 l 0.036,-21.6475 20.1171,-1.76662 -0.011,4.63775 c 0,1.83937 1.4844,3.19925 3.3262,3.0395 l 49.5274,-4.33975 c 1.8425,-0.166 3.3425,-1.78125 3.3538,-3.626 l 0.01,-4.63025 20.1,-1.7575"
         style="fill:#ff00ff;fill-opacity:1;fill-rule:nonzero;stroke:none"
         id="path4593" />
    </clipPath>
    <radialGradient
       gradientUnits="userSpaceOnUse"
       gradientTransform="matrix(-1.4333926,-2.2742838,1.1731823,-0.73941125,-174.08025,98.374394)"
       r="20.40658"
       fy="93.399292"
       fx="-26.508606"
       cy="93.399292"
       cx="-26.508606"
       id="radialGradient3856"
       xlink:href="#linearGradient3850"
       inkscape:collect="always" />
    <linearGradient
       gradientTransform="translate(-318.48033,212.32022)"
       gradientUnits="userSpaceOnUse"
       y2="993.19702"
       x2="-51.879555"
       y1="593.11615"
       x1="348.20132"
       id="linearGradient3895"
       xlink:href="#linearGradient3850"
       inkscape:collect="always" />
    <clipPath
       id="clipPath3906"
       clipPathUnits="userSpaceOnUse">
      <rect
         transform="scale(1,-1)"
         style="color:#000000;display:inline;overflow:visible;visibility:visible;opacity:0.8;fill:#ff00ff;stroke:none;stroke-width:4;marker:none;enable-background:accumulate"
         id="rect3908"
         width="1019.1371"
         height="1019.1371"
         x="357.9816"
         y="-1725.8152" />
    </clipPath>
    <linearGradient
       gradientTransform="translate(0,-1.111e-5)"
       inkscape:collect="always"
       xlink:href="#linearGradient4439-7"
       id="linearGradient908-9"
       x1="-220"
       y1="731.29077"
       x2="-220"
       y2="635.29077"
       gradientUnits="userSpaceOnUse" />
    <linearGradient
       id="linearGradient4439-7"
       inkscape:collect="always">
      <stop
         id="stop4441-6"
         offset="0"
         style="stop-color:#f2f2f2;stop-opacity:1" />
      <stop
         id="stop4443-2"
         offset="1"
         style="stop-color:#f9f9f9;stop-opacity:1" />
    </linearGradient>
    <filter
       style="color-interpolation-filters:sRGB"
       inkscape:label="Inner Shadow"
       id="filter1121-2">
      <feFlood
         flood-opacity="0.59999999999999998"
         flood-color="rgb(0,0,0)"
         result="flood"
         id="feFlood1123-6" />
      <feComposite
         in="flood"
         in2="SourceGraphic"
         operator="out"
         result="composite1"
         id="feComposite1125-4" />
      <feGaussianBlur
         in="composite1"
         stdDeviation="1"
         result="blur"
         id="feGaussianBlur1127-0" />
      <feOffset
         dx="0"
         dy="2"
         result="offset"
         id="feOffset1129-2" />
      <feComposite
         in="offset"
         in2="SourceGraphic"
         operator="atop"
         result="composite2"
         id="feComposite1131-1" />
    </filter>
  </defs>
  <sodipodi:namedview
     id="base"
     pagecolor="#ffffff"
     bordercolor="#666666"
     borderopacity="1.0"
     inkscape:pageopacity="0.0"
     inkscape:pageshadow="2"
     inkscape:zoom="7.9580784"
     inkscape:cx="28.893746"
     inkscape:cy="26.083721"
     inkscape:document-units="px"
     inkscape:current-layer="layer3"
     showgrid="false"
     fit-margin-top="0"
     fit-margin-left="0"
     fit-margin-right="0"
     fit-margin-bottom="0"
     inkscape:window-width="1920"
     inkscape:window-height="1029"
     inkscape:window-x="0"
     inkscape:window-y="24"
     inkscape:window-maximized="1"
     showborder="true"
     showguides="false"
     inkscape:guide-bbox="true"
     inkscape:showpageshadow="false"
     inkscape:snap-global="false"
     inkscape:snap-bbox="true"
     inkscape:bbox-paths="true"
     inkscape:bbox-nodes="true"
     inkscape:snap-bbox-edge-midpoints="true"
     inkscape:snap-bbox-midpoints="true"
     inkscape:object-paths="true"
     inkscape:snap-intersection-paths="true"
     inkscape:object-nodes="true"
     inkscape:snap-smooth-nodes="true"
     inkscape:snap-midpoints="true"
     inkscape:snap-object-midpoints="true"
     inkscape:snap-center="true"
     inkscape:snap-page="true">
    <inkscape:grid
       type="xygrid"
       id="grid821" />
    <sodipodi:guide
       orientation="1,0"
       position="16,48"
       id="guide823" />
    <sodipodi:guide
       orientation="0,1"
       position="64,80"
       id="guide825" />
    <sodipodi:guide
       orientation="1,0"
       position="80,40"
       id="guide827" />
    <sodipodi:guide
       orientation="0,1"
       position="64,16"
       id="guide829" />
  </sodipodi:namedview>
  <metadata
     id="metadata6522">
    <rdf:RDF>
      <cc:Work
         rdf:about="">
        <dc:format>image/svg+xml</dc:format>
        <dc:type
           rdf:resource="http://purl.org/dc/dcmitype/StillImage" />
        <dc:title></dc:title>
      </cc:Work>
    </rdf:RDF>
  </metadata>
  <g
     inkscape:label="BACKGROUND"
     inkscape:groupmode="layer"
     id="layer1"
     transform="translate(268,-635.29076)"
     style="display:inline"
     sodipodi:insensitive="true">
    <path
       style="display:inline;fill:url(#linearGradient908-9);fill-opacity:1;stroke:none;filter:url(#filter1121-2)"
       d="m -268,700.15562 v -33.72973 c 0,-27.24324 3.88785,-31.13513 31.10302,-31.13513 h 33.79408 c 27.21507,0 31.1029,3.89189 31.1029,31.13513 v 33.72973 c 0,27.24325 -3.88783,31.13514 -31.1029,31.13514 h -33.79408 c -27.21517,0 -31.10302,-3.89189 -31.10302,-31.13514 z"
       id="path6455-8"
       inkscape:connector-curvature="0"
       sodipodi:nodetypes="sssssssss" />
  </g>
  <g
     inkscape:groupmode="layer"
     id="layer4"
     inkscape:label="FOLDS"
     sodipodi:insensitive="true" />
  <g
     inkscape:groupmode="layer"
     id="layer3"
     inkscape:label="PLACE YOUR PICTOGRAM HERE"
     style="display:inline">
    <path
       style="color:#000000;display:inline;overflow:visible;visibility:visible;opacity:1;fill:#201f1f;fill-opacity:1;fill-rule:nonzero;stroke:none;stroke-width:3;stroke-linecap:butt;stroke-linejoin:miter;stroke-miterlimit:4;stroke-dasharray:none;stroke-dashoffset:0;stroke-opacity:1;marker:none;enable-background:accumulate"
       d="M 48.000977,13.601563 A 34.399006,34.399006 0 0 0 13.600586,48 34.399006,34.399006 0 0 0 48.000977,82.398437 34.399006,34.399006 0 0 0 82.399414,48 34.399006,34.399006 0 0 0 48.000977,13.601563 Z m 0,11.623046 A 22.775597,22.775597 0 0 1 70.776368,48 22.775597,22.775597 0 0 1 48.000977,70.77539 22.775597,22.775597 0 0 1 25.225586,48 22.775597,22.775597 0 0 1 48.000977,25.224609 Z"
       id="path4319"
       inkscape:connector-curvature="0" />
    <path
       style="color:#000000;display:inline;overflow:visible;visibility:visible;opacity:1;fill:#4f8a49;fill-opacity:1;fill-rule:nonzero;stroke:none;stroke-width:3;stroke-linecap:butt;stroke-linejoin:miter;stroke-miterlimit:4;stroke-dasharray:none;stroke-dashoffset:0;stroke-opacity:1;marker:none;enable-background:accumulate"
       d="m 57.626953,34.075195 v 5.279297 H 40.791016 v 6.835938 h 16.835937 v 5.279297 L 68.398437,42.772461 Z M 38.373047,44.530274 27.601562,53.227539 38.373047,61.924805 V 56.645508 H 55.208984 V 49.809571 H 38.373047 Z"
       id="rect4326"
       inkscape:connector-curvature="0" />
  </g>
  <g
     inkscape:groupmode="layer"
     id="layer2"
     inkscape:label="BADGE"
     style="display:none"
     sodipodi:insensitive="true">
    <g
       style="display:inline"
       transform="translate(-340.00001,-581)"
       id="g4394"
       clip-path="none">
      <g
         id="g855">
        <g
           inkscape:groupmode="maskhelper"
           id="g870"
           clip-path="url(#clipPath873)"
           style="opacity:0.6;filter:url(#filter891)">
          <circle
             transform="matrix(1.4999992,0,0,1.4999992,-29.999795,-237.54282)"
             id="path844"
             style="color:#000000;display:inline;overflow:visible;visibility:visible;fill:#000000;fill-opacity:1;fill-rule:nonzero;stroke:none;stroke-width:4;marker:none;enable-background:accumulate"
             cx="252"
             cy="552.36218"
             r="12" />
        </g>
        <g
           id="g862">
          <circle
             style="color:#000000;display:inline;overflow:visible;visibility:visible;fill:#f5f5f5;fill-opacity:1;fill-rule:nonzero;stroke:none;stroke-width:4;marker:none;enable-background:accumulate"
             id="path4398"
             transform="matrix(1.4999992,0,0,1.4999992,-29.999795,-238.54282)"
             cx="252"
             cy="552.36218"
             r="12" />
          <circle
             transform="matrix(1.25,0,0,1.25,33,-100.45273)"
             id="path4400"
             style="color:#000000;display:inline;overflow:visible;visibility:visible;fill:#dd4814;fill-opacity:1;fill-rule:nonzero;stroke:none;stroke-width:4;marker:none;enable-background:accumulate"
             cx="252"
             cy="552.36218"
             r="12" />
          <path
             sodipodi:type="star"
             style="color:#000000;display:inline;overflow:visible;visibility:visible;fill:#f5f5f5;fill-opacity:1;fill-rule:nonzero;stroke:none;stroke-width:3;marker:none;enable-background:accumulate"
             id="path4459"
             sodipodi:sides="5"
             sodipodi:cx="666.19574"
             sodipodi:cy="589.50385"
             sodipodi:r1="7.2431178"
             sodipodi:r2="4.3458705"
             sodipodi:arg1="1.0471976"
             sodipodi:arg2="1.6755161"
             inkscape:flatsided="false"
             inkscape:rounded="0.1"
             inkscape:randomized="0"
             d="m 669.8173,595.77657 c -0.39132,0.22593 -3.62645,-1.90343 -4.07583,-1.95066 -0.44938,-0.0472 -4.05653,1.36297 -4.39232,1.06062 -0.3358,-0.30235 0.68963,-4.03715 0.59569,-4.47913 -0.0939,-0.44198 -2.5498,-3.43681 -2.36602,-3.8496 0.18379,-0.41279 4.05267,-0.59166 4.44398,-0.81759 0.39132,-0.22593 2.48067,-3.48704 2.93005,-3.4398 0.44938,0.0472 1.81505,3.67147 2.15084,3.97382 0.3358,0.30236 4.08294,1.2817 4.17689,1.72369 0.0939,0.44198 -2.9309,2.86076 -3.11469,3.27355 -0.18379,0.41279 0.0427,4.27917 -0.34859,4.5051 z"
             transform="matrix(1.511423,-0.16366377,0.16366377,1.511423,-755.37346,-191.93651)" />
        </g>
      </g>
    </g>
  </g>
</svg>
